<svg viewBox="0 0 700 610" xmlns="http://www.w3.org/2000/svg" font-family="-apple-system, Segoe UI, Helvetica, Arial, sans-serif">
  <rect width="700" height="610" fill="#1e2024"/>
  <rect x="94" y="60" width="512" height="416" fill="#25231f" stroke="#d9d2c4" stroke-width="3"/>
  <rect x="94" y="60" width="512" height="88" fill="#2c2a25"/>
  <line x1="94" y1="148" x2="606" y2="148" stroke="#9b968c" stroke-width="1.5" stroke-dasharray="4,4"/>
  <g fill="#0a1526" stroke="#1b1d20" stroke-width="3">
    <rect x="118" y="70" width="86" height="68" rx="10"/>
    <rect x="216" y="70" width="86" height="68" rx="10"/>
    <rect x="314" y="70" width="86" height="68" rx="10"/>
    <rect x="452" y="70" width="118" height="68" rx="10"/>
  </g>
  <g fill="#f4f8ff">
    <circle cx="146" cy="94" r="1.4"/><circle cx="182" cy="118" r="1.1"/><circle cx="248" cy="88" r="1.5"/>
    <circle cx="282" cy="122" r="1.1"/><circle cx="344" cy="98" r="1.4"/><circle cx="382" cy="116" r="1.1"/>
    <circle cx="490" cy="92" r="1.5"/><circle cx="532" cy="118" r="1.2"/><circle cx="510" cy="108" r="1.0"/>
  </g>
  <text x="300" y="54" text-anchor="middle" fill="#9a958a" font-size="12">glazed hull slope (plan projection) · outboard</text>
  <rect x="112" y="170" width="300" height="240" rx="16" fill="#6d4a52" opacity="0.9"/>
  <rect x="128" y="162" width="250" height="66" rx="16" fill="#cfc6b4" stroke="#9b968c" stroke-width="2"/>
  <text x="253" y="200" text-anchor="middle" fill="#6d5a49" font-size="11">couch</text>
  <rect x="188" y="252" width="130" height="58" rx="12" fill="#8a6a48"/>
  <text x="253" y="284" text-anchor="middle" fill="#3d2f1e" font-size="11">low table</text>
  <circle cx="120" cy="152" r="13" fill="#7d9468"/>
  <circle cx="392" cy="156" r="11" fill="#7d9468"/>
  <rect x="434" y="148" width="172" height="196" fill="#2c2a25" stroke="#9b968c" stroke-width="1.5"/>
  <rect x="420" y="148" width="14" height="196" fill="#1b1d20"/>
  <text x="427" y="358" fill="#9a958a" font-size="10" transform="rotate(-90 427 358)" text-anchor="middle">step +0.25 m</text>
  <rect x="452" y="162" width="120" height="168" rx="14" fill="#e6e0d4" stroke="#9b968c" stroke-width="2"/>
  <rect x="452" y="162" width="120" height="40" rx="14" fill="#cfc6b4"/>
  <text x="512" y="256" text-anchor="middle" fill="#6d5a49" font-size="11">bed</text>
  <rect x="94" y="330" width="60" height="110" fill="#8a6a48"/>
  <text x="124" y="390" text-anchor="middle" fill="#3d2f1e" font-size="11" transform="rotate(-90 124 390)">desk</text>
  <rect x="300" y="470" width="100" height="8" fill="#9b968c"/>
  <text x="350" y="496" text-anchor="middle" fill="#9a958a" font-size="11">entry</text>
  <rect x="210" y="240" width="200" height="200" fill="none" stroke="#2cc7b8" stroke-width="1.5" stroke-dasharray="7,6" opacity="0.7"/>
  <text x="310" y="456" text-anchor="middle" fill="#2cc7b8" font-size="11">physical playspace (real walking)</text>
  <g>
    <g transform="translate(253,196)"><circle r="12" fill="#16171a" stroke="#ffb35c" stroke-width="2"/><text y="4" text-anchor="middle" fill="#ffb35c" font-size="11" font-weight="700">1</text></g>
    <g transform="translate(512,208)"><circle r="12" fill="#16171a" stroke="#ffb35c" stroke-width="2"/><text y="4" text-anchor="middle" fill="#ffb35c" font-size="11" font-weight="700">2</text></g>
    <g transform="translate(512,296)"><circle r="12" fill="#16171a" stroke="#ffb35c" stroke-width="2"/><text y="4" text-anchor="middle" fill="#ffb35c" font-size="11" font-weight="700">3</text></g>
    <g transform="translate(134,384)"><circle r="12" fill="#16171a" stroke="#ffb35c" stroke-width="2"/><text y="4" text-anchor="middle" fill="#ffb35c" font-size="11" font-weight="700">4</text></g>
  </g>
  <g fill="#9a958a" font-size="12">
    <text x="94" y="530"><tspan fill="#ffb35c" font-weight="700">1</tspan>  couch — stars overhead through slope</text>
    <text x="94" y="552"><tspan fill="#ffb35c" font-weight="700">2</tspan>  bed, sitting — room + window across</text>
    <text x="94" y="574"><tspan fill="#ffb35c" font-weight="700">3</tspan>  bed, lying — straight up into the alcove pane</text>
    <text x="94" y="596"><tspan fill="#ffb35c" font-weight="700">4</tspan>  desk — inward view, quarters at your back</text>
  </g>
</svg>
