<svg viewBox="0 0 800 400" xmlns="http://www.w3.org/2000/svg" font-family="-apple-system, Segoe UI, Helvetica, Arial, sans-serif">
  <rect width="800" height="400" fill="#1e2024"/>
  <defs>
    <radialGradient id="neb2" cx="35%" cy="30%" r="90%">
      <stop offset="0%" stop-color="#182742"/>
      <stop offset="60%" stop-color="#0a1526"/>
      <stop offset="100%" stop-color="#060c18"/>
    </radialGradient>
  </defs>
  <rect x="60" y="50" width="680" height="250" rx="6" fill="#d9d2c4" stroke="#9b968c" stroke-width="2"/>
  <g stroke="#1b1d20" stroke-width="7" stroke-linejoin="round" fill="url(#neb2)">
    <path d="M110,90 Q114,74 130,72 L204,66 Q220,65 222,80 L232,232 Q233,248 217,250 L127,254 Q111,255 110,239 Z"/>
    <path d="M282,84 Q284,68 300,67 L374,64 Q390,64 391,79 L396,234 Q396,250 380,251 L292,253 Q276,253 276,237 Z"/>
    <path d="M450,82 Q451,66 467,66 L541,66 Q557,66 559,81 L568,235 Q569,251 553,252 L462,252 Q446,252 446,236 Z"/>
  </g>
  <g fill="#f4f8ff">
    <circle cx="150" cy="120" r="1.7"/><circle cx="188" cy="168" r="1.2"/><circle cx="164" cy="214" r="1.4"/>
    <circle cx="206" cy="106" r="1.1"/><circle cx="136" cy="176" r="1.0"/>
    <circle cx="316" cy="112" r="1.6"/><circle cx="352" cy="160" r="1.1"/><circle cx="300" cy="204" r="1.3"/>
    <circle cx="372" cy="216" r="1.5"/><circle cx="336" cy="92" r="1.0"/>
    <circle cx="486" cy="118" r="1.5"/><circle cx="524" cy="96" r="1.2"/><circle cx="502" cy="186" r="1.1"/>
    <circle cx="540" cy="220" r="1.6"/><circle cx="466" cy="160" r="1.0"/>
  </g>
  <path d="M636,86 Q638,70 654,70 L728,72 L734,246 L650,250 Q634,250 634,234 Z" fill="url(#neb2)" stroke="#1b1d20" stroke-width="7" opacity="0.92"/>
  <circle cx="678" cy="130" r="1.5" fill="#f4f8ff"/><circle cx="702" cy="190" r="1.2" fill="#f4f8ff"/>
  <text x="686" y="278" text-anchor="middle" fill="#9a958a" font-size="11">alcove pane →</text>
  <rect x="60" y="300" width="680" height="16" rx="5" fill="#9b968c"/>
  <rect x="80" y="296" width="540" height="5" rx="2.5" fill="#ffe8c4"/>
  <g stroke="#7d9468" stroke-width="3" fill="none" stroke-linecap="round">
    <path d="M118,296 C112,278 118,266 126,258 M118,296 C124,276 136,270 142,266"/>
  </g>
  <rect x="106" y="294" width="26" height="6" rx="2" fill="#8a6a48"/>
  <rect x="588" y="286" width="7" height="14" fill="#8a6a48"/><rect x="597" y="288" width="7" height="12" fill="#6d4a52"/><rect x="606" y="285" width="7" height="15" fill="#9b968c"/>
  <path d="M150,398 L150,352 Q150,336 166,336 L520,336 Q536,336 536,352 L536,398" fill="#cfc6b4" stroke="#9b968c" stroke-width="2"/>
  <rect x="170" y="330" width="330" height="14" rx="7" fill="#e6e0d4"/>
  <text x="400" y="34" text-anchor="middle" fill="#e8e4dc" font-size="14" font-weight="600">WINDOW WALL FROM ANCHOR 1 (COUCH)</text>
</svg>
